<mxfile host="app.diagrams.net" modified="2021-02-24T07:35:56.970Z" agent="5.0 (Windows NT 10.0; Win64; x64) AppleWebKit/537.36 (KHTML, like Gecko) Chrome/88.0.4324.182 Safari/537.36" etag="oz-pe9K0h9s58SjDzDa3" version="14.4.2" type="github">
  <diagram id="h-ZbI1VZD0IIb12Uuh02" name="Page-1">
    <mxGraphModel dx="1865" dy="556" grid="1" gridSize="10" guides="1" tooltips="1" connect="1" arrows="1" fold="1" page="1" pageScale="1" pageWidth="827" pageHeight="1169" math="0" shadow="0">
      <root>
        <mxCell id="0" />
        <mxCell id="1" parent="0" />
        <mxCell id="6kdXOR3zzFCH5OW1rTOD-1" value="AUTHOR" style="rounded=0;whiteSpace=wrap;html=1;fontStyle=1;strokeWidth=2;" vertex="1" parent="1">
          <mxGeometry x="120" y="130" width="100" height="30" as="geometry" />
        </mxCell>
        <mxCell id="6kdXOR3zzFCH5OW1rTOD-3" value="REVIEWER" style="rounded=0;whiteSpace=wrap;html=1;fontStyle=1;strokeWidth=2;" vertex="1" parent="1">
          <mxGeometry x="120" y="410" width="100" height="30" as="geometry" />
        </mxCell>
        <mxCell id="6kdXOR3zzFCH5OW1rTOD-4" value="PAPER" style="rounded=0;whiteSpace=wrap;html=1;fontStyle=1;strokeWidth=2;" vertex="1" parent="1">
          <mxGeometry x="560" y="130" width="100" height="30" as="geometry" />
        </mxCell>
        <mxCell id="6kdXOR3zzFCH5OW1rTOD-5" value="&lt;u&gt;e-mail ID&lt;/u&gt;" style="ellipse;whiteSpace=wrap;html=1;strokeWidth=2;fontStyle=1" vertex="1" parent="1">
          <mxGeometry x="30" y="80" width="80" height="30" as="geometry" />
        </mxCell>
        <mxCell id="6kdXOR3zzFCH5OW1rTOD-6" value="&lt;span&gt;FName&lt;/span&gt;" style="ellipse;whiteSpace=wrap;html=1;strokeWidth=2;fontStyle=1" vertex="1" parent="1">
          <mxGeometry x="110" y="60" width="80" height="30" as="geometry" />
        </mxCell>
        <mxCell id="6kdXOR3zzFCH5OW1rTOD-7" value="&lt;span&gt;LName&lt;/span&gt;" style="ellipse;whiteSpace=wrap;html=1;strokeWidth=2;fontStyle=1" vertex="1" parent="1">
          <mxGeometry x="210" y="70" width="80" height="30" as="geometry" />
        </mxCell>
        <mxCell id="6kdXOR3zzFCH5OW1rTOD-8" value="System" style="ellipse;whiteSpace=wrap;html=1;strokeWidth=2;fontStyle=5" vertex="1" parent="1">
          <mxGeometry x="460" y="70" width="80" height="30" as="geometry" />
        </mxCell>
        <mxCell id="6kdXOR3zzFCH5OW1rTOD-9" value="&lt;span&gt;Title&lt;/span&gt;" style="ellipse;whiteSpace=wrap;html=1;strokeWidth=2;fontStyle=1" vertex="1" parent="1">
          <mxGeometry x="550" y="40" width="80" height="30" as="geometry" />
        </mxCell>
        <mxCell id="6kdXOR3zzFCH5OW1rTOD-10" value="&lt;span&gt;Abstract&lt;/span&gt;" style="ellipse;whiteSpace=wrap;html=1;strokeWidth=2;fontStyle=1" vertex="1" parent="1">
          <mxGeometry x="630" y="50" width="80" height="30" as="geometry" />
        </mxCell>
        <mxCell id="6kdXOR3zzFCH5OW1rTOD-11" value="&lt;span&gt;Name of File&lt;/span&gt;" style="ellipse;whiteSpace=wrap;html=1;strokeWidth=2;fontStyle=1" vertex="1" parent="1">
          <mxGeometry x="710" y="80" width="80" height="30" as="geometry" />
        </mxCell>
        <mxCell id="6kdXOR3zzFCH5OW1rTOD-12" value="&lt;u&gt;e-mail Addr&lt;/u&gt;" style="ellipse;whiteSpace=wrap;html=1;strokeWidth=2;fontStyle=1" vertex="1" parent="1">
          <mxGeometry x="10" y="380" width="80" height="30" as="geometry" />
        </mxCell>
        <mxCell id="6kdXOR3zzFCH5OW1rTOD-13" value="&lt;span&gt;FName&lt;/span&gt;" style="ellipse;whiteSpace=wrap;html=1;strokeWidth=2;fontStyle=1" vertex="1" parent="1">
          <mxGeometry x="60" y="340" width="80" height="30" as="geometry" />
        </mxCell>
        <mxCell id="6kdXOR3zzFCH5OW1rTOD-14" value="&lt;span&gt;LName&lt;/span&gt;" style="ellipse;whiteSpace=wrap;html=1;strokeWidth=2;fontStyle=1" vertex="1" parent="1">
          <mxGeometry x="240" y="460" width="80" height="30" as="geometry" />
        </mxCell>
        <mxCell id="6kdXOR3zzFCH5OW1rTOD-15" value="&lt;span&gt;Phone Num&lt;/span&gt;" style="ellipse;whiteSpace=wrap;html=1;strokeWidth=2;fontStyle=1" vertex="1" parent="1">
          <mxGeometry x="160" y="480" width="80" height="30" as="geometry" />
        </mxCell>
        <mxCell id="6kdXOR3zzFCH5OW1rTOD-16" value="&lt;span&gt;Topics&lt;/span&gt;" style="ellipse;whiteSpace=wrap;html=1;strokeWidth=2;fontStyle=1" vertex="1" parent="1">
          <mxGeometry x="50" y="470" width="80" height="30" as="geometry" />
        </mxCell>
        <mxCell id="6kdXOR3zzFCH5OW1rTOD-17" value="&lt;span&gt;Affiliation&lt;/span&gt;" style="ellipse;whiteSpace=wrap;html=1;strokeWidth=2;fontStyle=1" vertex="1" parent="1">
          <mxGeometry x="-10" y="430" width="80" height="30" as="geometry" />
        </mxCell>
        <mxCell id="6kdXOR3zzFCH5OW1rTOD-18" value="write" style="shape=rhombus;perimeter=rhombusPerimeter;whiteSpace=wrap;html=1;align=center;strokeWidth=2;" vertex="1" parent="1">
          <mxGeometry x="340" y="125" width="110" height="40" as="geometry" />
        </mxCell>
        <mxCell id="6kdXOR3zzFCH5OW1rTOD-20" value="REVIEW" style="shape=ext;margin=3;double=1;whiteSpace=wrap;html=1;align=center;strokeWidth=2;fontStyle=1" vertex="1" parent="1">
          <mxGeometry x="560" y="405" width="100" height="40" as="geometry" />
        </mxCell>
        <mxCell id="6kdXOR3zzFCH5OW1rTOD-23" value="&lt;span&gt;Relevance&lt;/span&gt;" style="ellipse;whiteSpace=wrap;html=1;strokeWidth=2;fontStyle=1" vertex="1" parent="1">
          <mxGeometry x="770" y="430" width="80" height="30" as="geometry" />
        </mxCell>
        <mxCell id="6kdXOR3zzFCH5OW1rTOD-24" value="&lt;span&gt;Technicalmerit&lt;/span&gt;" style="ellipse;whiteSpace=wrap;html=1;strokeWidth=2;fontStyle=1" vertex="1" parent="1">
          <mxGeometry x="720" y="490" width="100" height="30" as="geometry" />
        </mxCell>
        <mxCell id="6kdXOR3zzFCH5OW1rTOD-25" value="&lt;span&gt;Originality&lt;/span&gt;" style="ellipse;whiteSpace=wrap;html=1;strokeWidth=2;fontStyle=1" vertex="1" parent="1">
          <mxGeometry x="630" y="500" width="80" height="30" as="geometry" />
        </mxCell>
        <mxCell id="6kdXOR3zzFCH5OW1rTOD-26" value="Readability" style="ellipse;whiteSpace=wrap;html=1;strokeWidth=2;fontStyle=1" vertex="1" parent="1">
          <mxGeometry x="540" y="500" width="80" height="30" as="geometry" />
        </mxCell>
        <mxCell id="6kdXOR3zzFCH5OW1rTOD-27" value="&lt;span&gt;Recomendation&lt;/span&gt;" style="ellipse;whiteSpace=wrap;html=1;strokeWidth=2;fontStyle=1" vertex="1" parent="1">
          <mxGeometry x="440" y="480" width="100" height="30" as="geometry" />
        </mxCell>
        <mxCell id="6kdXOR3zzFCH5OW1rTOD-29" value="has" style="shape=rhombus;double=1;perimeter=rhombusPerimeter;whiteSpace=wrap;html=1;align=center;strokeWidth=2;" vertex="1" parent="1">
          <mxGeometry x="380" y="405" width="110" height="40" as="geometry" />
        </mxCell>
        <mxCell id="6kdXOR3zzFCH5OW1rTOD-30" value="" style="endArrow=none;html=1;rounded=0;exitX=0.25;exitY=0;exitDx=0;exitDy=0;entryX=0.5;entryY=1;entryDx=0;entryDy=0;" edge="1" parent="1" source="6kdXOR3zzFCH5OW1rTOD-1" target="6kdXOR3zzFCH5OW1rTOD-5">
          <mxGeometry relative="1" as="geometry">
            <mxPoint x="450" y="290" as="sourcePoint" />
            <mxPoint x="610" y="290" as="targetPoint" />
          </mxGeometry>
        </mxCell>
        <mxCell id="6kdXOR3zzFCH5OW1rTOD-31" value="" style="endArrow=none;html=1;rounded=0;exitX=0.5;exitY=1;exitDx=0;exitDy=0;entryX=0.5;entryY=0;entryDx=0;entryDy=0;" edge="1" parent="1" source="6kdXOR3zzFCH5OW1rTOD-6" target="6kdXOR3zzFCH5OW1rTOD-1">
          <mxGeometry relative="1" as="geometry">
            <mxPoint x="155" y="140" as="sourcePoint" />
            <mxPoint x="80" y="120" as="targetPoint" />
          </mxGeometry>
        </mxCell>
        <mxCell id="6kdXOR3zzFCH5OW1rTOD-32" value="" style="endArrow=none;html=1;rounded=0;exitX=0.5;exitY=1;exitDx=0;exitDy=0;" edge="1" parent="1" source="6kdXOR3zzFCH5OW1rTOD-7">
          <mxGeometry relative="1" as="geometry">
            <mxPoint x="160" y="100" as="sourcePoint" />
            <mxPoint x="200" y="130" as="targetPoint" />
          </mxGeometry>
        </mxCell>
        <mxCell id="6kdXOR3zzFCH5OW1rTOD-33" value="" style="endArrow=none;html=1;rounded=0;exitX=0.738;exitY=0.993;exitDx=0;exitDy=0;exitPerimeter=0;entryX=0.25;entryY=0;entryDx=0;entryDy=0;" edge="1" parent="1" source="6kdXOR3zzFCH5OW1rTOD-8" target="6kdXOR3zzFCH5OW1rTOD-4">
          <mxGeometry relative="1" as="geometry">
            <mxPoint x="260" y="110" as="sourcePoint" />
            <mxPoint x="210" y="140" as="targetPoint" />
          </mxGeometry>
        </mxCell>
        <mxCell id="6kdXOR3zzFCH5OW1rTOD-34" value="" style="endArrow=none;html=1;rounded=0;exitX=0.5;exitY=1;exitDx=0;exitDy=0;entryX=0.398;entryY=-0.127;entryDx=0;entryDy=0;entryPerimeter=0;" edge="1" parent="1" source="6kdXOR3zzFCH5OW1rTOD-9" target="6kdXOR3zzFCH5OW1rTOD-4">
          <mxGeometry relative="1" as="geometry">
            <mxPoint x="529.04" y="109.78999999999996" as="sourcePoint" />
            <mxPoint x="595" y="140" as="targetPoint" />
          </mxGeometry>
        </mxCell>
        <mxCell id="6kdXOR3zzFCH5OW1rTOD-35" value="" style="endArrow=none;html=1;rounded=0;exitX=0.5;exitY=1;exitDx=0;exitDy=0;" edge="1" parent="1" source="6kdXOR3zzFCH5OW1rTOD-10">
          <mxGeometry relative="1" as="geometry">
            <mxPoint x="600" y="80" as="sourcePoint" />
            <mxPoint x="620" y="130" as="targetPoint" />
          </mxGeometry>
        </mxCell>
        <mxCell id="6kdXOR3zzFCH5OW1rTOD-36" value="" style="endArrow=none;html=1;rounded=0;exitX=0;exitY=0.5;exitDx=0;exitDy=0;" edge="1" parent="1" source="6kdXOR3zzFCH5OW1rTOD-11">
          <mxGeometry relative="1" as="geometry">
            <mxPoint x="680" y="90" as="sourcePoint" />
            <mxPoint x="650" y="130" as="targetPoint" />
          </mxGeometry>
        </mxCell>
        <mxCell id="6kdXOR3zzFCH5OW1rTOD-37" value="" style="endArrow=none;html=1;rounded=0;exitX=1;exitY=0;exitDx=0;exitDy=0;entryX=0.25;entryY=1;entryDx=0;entryDy=0;" edge="1" parent="1" source="6kdXOR3zzFCH5OW1rTOD-27" target="6kdXOR3zzFCH5OW1rTOD-20">
          <mxGeometry relative="1" as="geometry">
            <mxPoint x="720" y="105" as="sourcePoint" />
            <mxPoint x="660" y="140" as="targetPoint" />
          </mxGeometry>
        </mxCell>
        <mxCell id="6kdXOR3zzFCH5OW1rTOD-38" value="" style="endArrow=none;html=1;rounded=0;exitX=0.5;exitY=0;exitDx=0;exitDy=0;entryX=0.25;entryY=1;entryDx=0;entryDy=0;" edge="1" parent="1" source="6kdXOR3zzFCH5OW1rTOD-26" target="6kdXOR3zzFCH5OW1rTOD-20">
          <mxGeometry relative="1" as="geometry">
            <mxPoint x="535.3553390593274" y="494.3933982822018" as="sourcePoint" />
            <mxPoint x="590" y="450" as="targetPoint" />
          </mxGeometry>
        </mxCell>
        <mxCell id="6kdXOR3zzFCH5OW1rTOD-39" value="" style="endArrow=none;html=1;rounded=0;exitX=0;exitY=0;exitDx=0;exitDy=0;entryX=0.25;entryY=1;entryDx=0;entryDy=0;" edge="1" parent="1" source="6kdXOR3zzFCH5OW1rTOD-25" target="6kdXOR3zzFCH5OW1rTOD-20">
          <mxGeometry relative="1" as="geometry">
            <mxPoint x="590" y="510" as="sourcePoint" />
            <mxPoint x="590" y="460" as="targetPoint" />
          </mxGeometry>
        </mxCell>
        <mxCell id="6kdXOR3zzFCH5OW1rTOD-40" value="" style="endArrow=none;html=1;rounded=0;exitX=0;exitY=0;exitDx=0;exitDy=0;" edge="1" parent="1" source="6kdXOR3zzFCH5OW1rTOD-24">
          <mxGeometry relative="1" as="geometry">
            <mxPoint x="651.7157287525379" y="514.3933982822018" as="sourcePoint" />
            <mxPoint x="620" y="445" as="targetPoint" />
          </mxGeometry>
        </mxCell>
        <mxCell id="6kdXOR3zzFCH5OW1rTOD-41" value="" style="endArrow=none;html=1;rounded=0;exitX=0;exitY=0.5;exitDx=0;exitDy=0;entryX=1;entryY=0.75;entryDx=0;entryDy=0;" edge="1" parent="1" source="6kdXOR3zzFCH5OW1rTOD-23" target="6kdXOR3zzFCH5OW1rTOD-20">
          <mxGeometry relative="1" as="geometry">
            <mxPoint x="744.6446609406726" y="504.3933982822018" as="sourcePoint" />
            <mxPoint x="630" y="455" as="targetPoint" />
          </mxGeometry>
        </mxCell>
        <mxCell id="6kdXOR3zzFCH5OW1rTOD-42" value="" style="endArrow=none;html=1;rounded=0;exitX=1;exitY=1;exitDx=0;exitDy=0;entryX=0.5;entryY=0;entryDx=0;entryDy=0;" edge="1" parent="1" source="6kdXOR3zzFCH5OW1rTOD-13" target="6kdXOR3zzFCH5OW1rTOD-3">
          <mxGeometry relative="1" as="geometry">
            <mxPoint x="450" y="290" as="sourcePoint" />
            <mxPoint x="610" y="290" as="targetPoint" />
          </mxGeometry>
        </mxCell>
        <mxCell id="6kdXOR3zzFCH5OW1rTOD-43" value="" style="endArrow=none;html=1;rounded=0;exitX=1;exitY=0.5;exitDx=0;exitDy=0;entryX=0;entryY=0;entryDx=0;entryDy=0;" edge="1" parent="1" source="6kdXOR3zzFCH5OW1rTOD-12" target="6kdXOR3zzFCH5OW1rTOD-3">
          <mxGeometry relative="1" as="geometry">
            <mxPoint x="138.2842712474619" y="375.6066017177982" as="sourcePoint" />
            <mxPoint x="180" y="420" as="targetPoint" />
          </mxGeometry>
        </mxCell>
        <mxCell id="6kdXOR3zzFCH5OW1rTOD-44" value="" style="endArrow=none;html=1;rounded=0;exitX=1;exitY=0.5;exitDx=0;exitDy=0;entryX=0;entryY=0.5;entryDx=0;entryDy=0;" edge="1" parent="1" source="6kdXOR3zzFCH5OW1rTOD-17" target="6kdXOR3zzFCH5OW1rTOD-3">
          <mxGeometry relative="1" as="geometry">
            <mxPoint x="100" y="405" as="sourcePoint" />
            <mxPoint x="130" y="420" as="targetPoint" />
          </mxGeometry>
        </mxCell>
        <mxCell id="6kdXOR3zzFCH5OW1rTOD-45" value="" style="endArrow=none;html=1;rounded=0;exitX=0.682;exitY=-0.1;exitDx=0;exitDy=0;entryX=0;entryY=1;entryDx=0;entryDy=0;exitPerimeter=0;" edge="1" parent="1" source="6kdXOR3zzFCH5OW1rTOD-16" target="6kdXOR3zzFCH5OW1rTOD-3">
          <mxGeometry relative="1" as="geometry">
            <mxPoint x="80" y="455" as="sourcePoint" />
            <mxPoint x="130" y="435" as="targetPoint" />
          </mxGeometry>
        </mxCell>
        <mxCell id="6kdXOR3zzFCH5OW1rTOD-46" value="" style="endArrow=none;html=1;rounded=0;entryX=0.326;entryY=1.02;entryDx=0;entryDy=0;entryPerimeter=0;" edge="1" parent="1" target="6kdXOR3zzFCH5OW1rTOD-3">
          <mxGeometry relative="1" as="geometry">
            <mxPoint x="180" y="477" as="sourcePoint" />
            <mxPoint x="130" y="450" as="targetPoint" />
          </mxGeometry>
        </mxCell>
        <mxCell id="6kdXOR3zzFCH5OW1rTOD-47" value="" style="endArrow=none;html=1;rounded=0;entryX=1;entryY=1;entryDx=0;entryDy=0;" edge="1" parent="1" source="6kdXOR3zzFCH5OW1rTOD-14" target="6kdXOR3zzFCH5OW1rTOD-3">
          <mxGeometry relative="1" as="geometry">
            <mxPoint x="190" y="487" as="sourcePoint" />
            <mxPoint x="162.5999999999999" y="450.6" as="targetPoint" />
          </mxGeometry>
        </mxCell>
        <mxCell id="6kdXOR3zzFCH5OW1rTOD-48" value="" style="endArrow=none;html=1;rounded=0;entryX=1;entryY=0.5;entryDx=0;entryDy=0;exitX=0;exitY=0.5;exitDx=0;exitDy=0;" edge="1" parent="1" source="6kdXOR3zzFCH5OW1rTOD-29" target="6kdXOR3zzFCH5OW1rTOD-3">
          <mxGeometry relative="1" as="geometry">
            <mxPoint x="268.3696963474599" y="472.3823228693518" as="sourcePoint" />
            <mxPoint x="230" y="450" as="targetPoint" />
          </mxGeometry>
        </mxCell>
        <mxCell id="6kdXOR3zzFCH5OW1rTOD-49" value="create" style="shape=rhombus;perimeter=rhombusPerimeter;whiteSpace=wrap;html=1;align=center;strokeWidth=2;" vertex="1" parent="1">
          <mxGeometry x="550" y="260" width="110" height="40" as="geometry" />
        </mxCell>
        <mxCell id="6kdXOR3zzFCH5OW1rTOD-50" value="" style="endArrow=none;html=1;rounded=0;entryX=0.5;entryY=1;entryDx=0;entryDy=0;exitX=0.5;exitY=0;exitDx=0;exitDy=0;" edge="1" parent="1" source="6kdXOR3zzFCH5OW1rTOD-49" target="6kdXOR3zzFCH5OW1rTOD-4">
          <mxGeometry relative="1" as="geometry">
            <mxPoint x="390" y="435" as="sourcePoint" />
            <mxPoint x="230" y="435" as="targetPoint" />
          </mxGeometry>
        </mxCell>
        <mxCell id="6kdXOR3zzFCH5OW1rTOD-51" value="" style="shape=link;html=1;rounded=0;exitX=0.5;exitY=1;exitDx=0;exitDy=0;entryX=0.5;entryY=0;entryDx=0;entryDy=0;" edge="1" parent="1" source="6kdXOR3zzFCH5OW1rTOD-49" target="6kdXOR3zzFCH5OW1rTOD-20">
          <mxGeometry relative="1" as="geometry">
            <mxPoint x="450" y="290" as="sourcePoint" />
            <mxPoint x="610" y="400" as="targetPoint" />
          </mxGeometry>
        </mxCell>
        <mxCell id="6kdXOR3zzFCH5OW1rTOD-52" value="1" style="resizable=0;html=1;align=right;verticalAlign=bottom;" connectable="0" vertex="1" parent="6kdXOR3zzFCH5OW1rTOD-51">
          <mxGeometry x="1" relative="1" as="geometry">
            <mxPoint x="-9.99" y="-4.88" as="offset" />
          </mxGeometry>
        </mxCell>
        <mxCell id="6kdXOR3zzFCH5OW1rTOD-53" value="" style="shape=link;html=1;rounded=0;exitX=1;exitY=0.5;exitDx=0;exitDy=0;entryX=0;entryY=0.5;entryDx=0;entryDy=0;" edge="1" parent="1" source="6kdXOR3zzFCH5OW1rTOD-29" target="6kdXOR3zzFCH5OW1rTOD-20">
          <mxGeometry relative="1" as="geometry">
            <mxPoint x="615" y="310" as="sourcePoint" />
            <mxPoint x="620" y="410" as="targetPoint" />
          </mxGeometry>
        </mxCell>
        <mxCell id="6kdXOR3zzFCH5OW1rTOD-54" value="1" style="resizable=0;html=1;align=right;verticalAlign=bottom;" connectable="0" vertex="1" parent="6kdXOR3zzFCH5OW1rTOD-53">
          <mxGeometry x="1" relative="1" as="geometry" />
        </mxCell>
        <mxCell id="6kdXOR3zzFCH5OW1rTOD-55" value="" style="endArrow=none;html=1;rounded=0;exitX=1;exitY=0.5;exitDx=0;exitDy=0;entryX=0;entryY=0.5;entryDx=0;entryDy=0;" edge="1" parent="1" source="6kdXOR3zzFCH5OW1rTOD-1" target="6kdXOR3zzFCH5OW1rTOD-18">
          <mxGeometry relative="1" as="geometry">
            <mxPoint x="450" y="290" as="sourcePoint" />
            <mxPoint x="610" y="290" as="targetPoint" />
          </mxGeometry>
        </mxCell>
        <mxCell id="6kdXOR3zzFCH5OW1rTOD-56" value="" style="endArrow=none;html=1;rounded=0;exitX=1;exitY=0.5;exitDx=0;exitDy=0;entryX=0;entryY=0.5;entryDx=0;entryDy=0;" edge="1" parent="1" source="6kdXOR3zzFCH5OW1rTOD-18" target="6kdXOR3zzFCH5OW1rTOD-4">
          <mxGeometry relative="1" as="geometry">
            <mxPoint x="230" y="155" as="sourcePoint" />
            <mxPoint x="350" y="155" as="targetPoint" />
          </mxGeometry>
        </mxCell>
        <mxCell id="6kdXOR3zzFCH5OW1rTOD-57" value="N" style="resizable=0;html=1;align=right;verticalAlign=bottom;" connectable="0" vertex="1" parent="1">
          <mxGeometry x="630.0043406886225" y="180.001154461066" as="geometry" />
        </mxCell>
      </root>
    </mxGraphModel>
  </diagram>
</mxfile>
